<?xml version="1.0" encoding="UTF-8"?>
<svg version="1.1" xmlns="http://www.w3.org/2000/svg" width="500" height="500">
<path d="M0 0 C6.6 0 13.2 0 20 0 C21 1 21 1 21.11352539 3.95922852 C21.10828857 5.25272217 21.10305176 6.54621582 21.09765625 7.87890625 C21.09515869 9.13517822 21.09266113 10.3914502 21.09008789 11.68579102 C21.08098389 13.29510498 21.07187988 14.90441895 21.0625 16.5625 C21.041875 21.656875 21.02125 26.75125 21 32 C32.55 32 44.1 32 56 32 C56 21.44 56 10.88 56 0 C60.9190625 -0.0309375 60.9190625 -0.0309375 65.9375 -0.0625 C66.97253662 -0.071604 68.00757324 -0.08070801 69.07397461 -0.09008789 C70.28839233 -0.09383423 70.28839233 -0.09383423 71.52734375 -0.09765625 C72.77632446 -0.10551147 72.77632446 -0.10551147 74.05053711 -0.11352539 C76 0 76 0 77 1 C77.09506052 3.55589888 77.12556761 6.08467972 77.11352539 8.64086914 C77.11367142 9.44080795 77.11381744 10.24074677 77.1139679 11.06492615 C77.11326855 13.72169665 77.10547518 16.37839793 77.09765625 19.03515625 C77.09579215 20.87218691 77.09436821 22.70921806 77.09336853 24.54624939 C77.08954275 29.39109662 77.07971196 34.23591408 77.06866455 39.08074951 C77.05845172 44.02062578 77.05387119 48.96050685 77.04882812 53.90039062 C77.03808974 63.60027563 77.02049246 73.30013069 77 83 C70.07 83 63.14 83 56 83 C56 72.11 56 61.22 56 50 C44.45 50 32.9 50 21 50 C21 60.89 21 71.78 21 83 C14.07 83 7.14 83 0 83 C0 55.61 0 28.22 0 0 Z " fill="#F5F4F4" transform="translate(13,212)"/>
<path d="M0 0 C5.34720345 6.90867672 6.44259147 14.50705235 6.25 23.00390625 C6.24434021 23.96638275 6.23868042 24.92885925 6.23284912 25.92050171 C6.21068363 28.95664909 6.16052633 31.99156074 6.109375 35.02734375 C6.08928431 37.1015453 6.07103808 39.17576559 6.0546875 41.25 C6.01088415 46.30124822 5.94199716 51.35158742 5.859375 56.40234375 C-0.080625 56.40234375 -6.020625 56.40234375 -12.140625 56.40234375 C-12.470625 54.75234375 -12.800625 53.10234375 -13.140625 51.40234375 C-13.800625 52.02109375 -14.460625 52.63984375 -15.140625 53.27734375 C-21.93702805 58.09146258 -30.31523967 58.22863954 -38.34375 57.08984375 C-44.12221632 55.85475171 -49.41044344 53.0650707 -53.140625 48.40234375 C-56.05727692 42.18158799 -56.16823908 35.60608177 -54.078125 29.08984375 C-49.81703099 23.179294 -45.8979048 20.19638089 -38.73535156 18.75976562 C-34.02048776 18.11029624 -29.32783649 18.19561476 -24.578125 18.27734375 C-23.56943359 18.28636719 -22.56074219 18.29539062 -21.52148438 18.3046875 C-19.06094043 18.32801019 -16.60091604 18.36073612 -14.140625 18.40234375 C-14.56859375 17.28730469 -14.9965625 16.17226562 -15.4375 15.0234375 C-15.67823242 14.39622803 -15.91896484 13.76901855 -16.16699219 13.12280273 C-17.9822595 9.91513253 -20.7538898 9.36191872 -24.140625 8.40234375 C-29.52953965 7.79227794 -33.85236451 9.05100172 -38.90625 10.74609375 C-41.140625 11.40234375 -41.140625 11.40234375 -44.140625 11.40234375 C-44.140625 12.06234375 -44.140625 12.72234375 -44.140625 13.40234375 C-48.03821994 12.10314544 -48.48961264 10.62791495 -50.453125 7.08984375 C-51.28263672 5.64158203 -51.28263672 5.64158203 -52.12890625 4.1640625 C-53.140625 1.40234375 -53.140625 1.40234375 -52.578125 -0.8203125 C-48.01396574 -6.46349854 -38.3479255 -7.45299255 -31.58203125 -8.34765625 C-19.25967702 -9.24281025 -9.59277819 -7.78917733 0 0 Z M-35.140625 32.40234375 C-36.14145035 35.82477689 -36.14145035 35.82477689 -36.140625 39.40234375 C-34.41836004 42.65084352 -34.41836004 42.65084352 -31.140625 43.40234375 C-25.71151723 43.93102091 -21.56883803 43.91886586 -17.140625 40.40234375 C-16.5425 39.98984375 -15.944375 39.57734375 -15.328125 39.15234375 C-13.46517381 36.406942 -14.06987533 33.63448656 -14.140625 30.40234375 C-16.89088917 30.34829926 -19.64008703 30.30865069 -22.390625 30.27734375 C-23.55658203 30.25220703 -23.55658203 30.25220703 -24.74609375 30.2265625 C-30.28964631 30.04812984 -30.28964631 30.04812984 -35.140625 32.40234375 Z " fill="#F2F2F2" transform="translate(452.140625,238.59765625)"/>
<path d="M0 0 C5.34720345 6.90867672 6.44259147 14.50705235 6.25 23.00390625 C6.24434021 23.96638275 6.23868042 24.92885925 6.23284912 25.92050171 C6.21068363 28.95664909 6.16052633 31.99156074 6.109375 35.02734375 C6.08928431 37.1015453 6.07103808 39.17576559 6.0546875 41.25 C6.01088415 46.30124822 5.94199716 51.35158742 5.859375 56.40234375 C-0.080625 56.40234375 -6.020625 56.40234375 -12.140625 56.40234375 C-12.635625 54.42234375 -12.635625 54.42234375 -13.140625 52.40234375 C-13.66011719 52.67949219 -14.17960937 52.95664062 -14.71484375 53.2421875 C-23.43424177 57.77111697 -31.78051825 58.78043786 -41.390625 56.21484375 C-46.5197448 54.47561317 -50.43669951 52.47977572 -53.16796875 47.546875 C-55.96282391 40.88816478 -55.84873203 34.86359432 -53.1328125 28.203125 C-51.64248004 25.49823025 -49.74103178 24.00259407 -47.140625 22.40234375 C-46.480625 22.40234375 -45.820625 22.40234375 -45.140625 22.40234375 C-45.140625 21.74234375 -45.140625 21.08234375 -45.140625 20.40234375 C-38.14553414 18.56495691 -31.79100656 18.15323063 -24.578125 18.27734375 C-23.56943359 18.28636719 -22.56074219 18.29539062 -21.52148438 18.3046875 C-19.06094043 18.32801019 -16.60091604 18.36073612 -14.140625 18.40234375 C-14.635625 14.93734375 -14.635625 14.93734375 -15.140625 11.40234375 C-23.86821339 8.07754817 -29.99090628 7.75585424 -38.90625 10.74609375 C-41.140625 11.40234375 -41.140625 11.40234375 -44.140625 11.40234375 C-44.140625 12.06234375 -44.140625 12.72234375 -44.140625 13.40234375 C-47.89967261 12.14932788 -48.15143087 11.11027091 -49.890625 7.65234375 C-50.33921875 6.79125 -50.7878125 5.93015625 -51.25 5.04296875 C-52.29498577 1.9446776 -52.33378664 0.44182017 -51.140625 -2.59765625 C-36.82999573 -12.71906285 -13.08299411 -10.62317497 0 0 Z M-35.140625 32.40234375 C-36.22395833 35.81901042 -36.22395833 35.81901042 -36.140625 39.40234375 C-34.37530933 42.05031725 -33.20962921 42.37934235 -30.140625 43.40234375 C-23.69504685 43.93947526 -20.46244968 43.09503842 -15.140625 39.40234375 C-13.6623024 36.44569856 -14.08029717 33.66004638 -14.140625 30.40234375 C-16.89088917 30.34829926 -19.64008703 30.30865069 -22.390625 30.27734375 C-23.55658203 30.25220703 -23.55658203 30.25220703 -24.74609375 30.2265625 C-30.2887134 30.04955953 -30.2887134 30.04955953 -35.140625 32.40234375 Z " fill="#F4F4F4" transform="translate(300.140625,238.59765625)"/>
<path d="M0 0 C6.27 0 12.54 0 19 0 C19.03738281 2.66191406 19.07476562 5.32382813 19.11328125 8.06640625 C19.15957066 10.66129496 19.21077724 13.25604366 19.26245117 15.85083008 C19.29558413 17.64599 19.32365187 19.44125117 19.34643555 21.23657227 C19.38019664 23.82612012 19.43252125 26.41474971 19.48828125 29.00390625 C19.49467117 29.79898087 19.5010611 30.59405548 19.50764465 31.41322327 C19.64343104 36.62854649 20.5138589 40.38213701 23 45 C27.2795709 47.44546909 31.20762023 47.06519932 35.94921875 46.58203125 C38.3820724 45.89156421 39.29960824 44.81799811 41 43 C41.66 43 42.32 43 43 43 C43.96207117 38.07666069 44.20914213 33.31599597 44.31640625 28.3203125 C44.33718735 27.50754852 44.35796844 26.69478455 44.37937927 25.85739136 C44.44437579 23.28000743 44.50352593 20.70252806 44.5625 18.125 C44.60573277 16.36978209 44.64934852 14.61457357 44.69335938 12.859375 C44.800721 8.57301273 44.90016412 4.2865705 45 0 C51.27 0 57.54 0 64 0 C64 21.12 64 42.24 64 64 C58.06 64 52.12 64 46 64 C46 62.35 46 60.7 46 59 C45.40832031 59.34933594 44.81664062 59.69867188 44.20703125 60.05859375 C43.41683594 60.51363281 42.62664062 60.96867187 41.8125 61.4375 C41.03519531 61.88996094 40.25789063 62.34242188 39.45703125 62.80859375 C31.74803135 66.54666207 22.32989718 65.75866252 14.39453125 63.109375 C8.10573924 60.19580741 3.41274745 55.52861076 1 49 C-0.36174314 44.02355569 -0.1258493 39.00302822 -0.09765625 33.88671875 C-0.0962413 32.91716751 -0.09482635 31.94761627 -0.09336853 30.94868469 C-0.08778513 27.86159133 -0.07523564 24.77457133 -0.0625 21.6875 C-0.05748286 19.59049584 -0.05292032 17.49349054 -0.04882812 15.39648438 C-0.03867337 10.26427213 -0.01909465 5.13221788 0 0 Z " fill="#F8F8F8" transform="translate(106,231)"/>
<path d="M0 0 C0.95708359 0.00222061 1.91416718 0.00444122 2.9002533 0.00672913 C3.98129837 0.00680466 5.06234344 0.00688019 6.17614746 0.00695801 C7.94018166 0.01469994 7.94018166 0.01469994 9.73985291 0.02259827 C10.93702438 0.02401321 12.13419586 0.02542816 13.36764526 0.02688599 C17.20918732 0.03250472 21.05067208 0.04506041 24.89219666 0.05775452 C27.48920102 0.0627671 30.0862063 0.06733043 32.68321228 0.07142639 C39.06539344 0.08248024 45.44754096 0.0992366 51.82969666 0.12025452 C52.5830207 14.02207251 52.5830207 14.02207251 49.93125916 17.89369202 C49.11399353 18.75220764 48.29672791 19.61072327 47.45469666 20.49525452 C46.64258728 21.38986389 45.83047791 22.28447327 44.99375916 23.20619202 C42.82969666 25.12025452 42.82969666 25.12025452 40.82969666 25.12025452 C40.60282166 25.63587952 40.37594666 26.15150452 40.14219666 26.68275452 C38.34752048 30.01572456 36.3300465 33.26729123 33.82969666 36.12025452 C33.16969666 36.12025452 32.50969666 36.12025452 31.82969666 36.12025452 C31.82969666 36.78025452 31.82969666 37.44025452 31.82969666 38.12025452 C31.16969666 38.12025452 30.50969666 38.12025452 29.82969666 38.12025452 C29.58219666 38.65650452 29.33469666 39.19275452 29.07969666 39.74525452 C27.54514147 42.66090936 25.65733934 45.37879049 23.82969666 48.12025452 C38.67969666 48.61525452 38.67969666 48.61525452 53.82969666 49.12025452 C53.82969666 54.07025452 53.82969666 59.02025452 53.82969666 64.12025452 C35.01969666 64.12025452 16.20969666 64.12025452 -3.17030334 64.12025452 C-3.17030334 49.67581007 -3.17030334 49.67581007 1.32188416 44.41322327 C2.82969666 43.12025452 2.82969666 43.12025452 4.82969666 43.12025452 C5.48969666 41.80025452 6.14969666 40.48025452 6.82969666 39.12025452 C7.48969666 39.12025452 8.14969666 39.12025452 8.82969666 39.12025452 C9.15969666 37.80025452 9.48969666 36.48025452 9.82969666 35.12025452 C10.48969666 35.12025452 11.14969666 35.12025452 11.82969666 35.12025452 C12.11844666 34.52212952 12.40719666 33.92400452 12.70469666 33.30775452 C13.82969666 31.12025452 13.82969666 31.12025452 15.82969666 28.12025452 C16.48969666 28.12025452 17.14969666 28.12025452 17.82969666 28.12025452 C18.05657166 27.60462952 18.28344666 27.08900452 18.51719666 26.55775452 C19.69299543 24.37412822 20.9627968 22.47394301 22.41172791 20.46791077 C22.86394714 19.8402179 23.31616638 19.21252502 23.78208923 18.56581116 C24.12779968 18.08877747 24.47351013 17.61174377 24.82969666 17.12025452 C23.61068665 17.08267029 23.61068665 17.08267029 22.36705017 17.04432678 C18.70858914 16.92876333 15.05041137 16.80585868 11.39219666 16.68275452 C10.11280212 16.64343811 8.83340759 16.6041217 7.51524353 16.56361389 C6.30030212 16.52171936 5.08536072 16.47982483 3.83360291 16.43666077 C2.70768738 16.40000305 1.58177185 16.36334534 0.42173767 16.32557678 C-2.17030334 16.12025452 -2.17030334 16.12025452 -3.17030334 15.12025452 C-3.26939637 12.78865397 -3.30000839 10.4539551 -3.29530334 8.12025452 C-3.29788147 6.84150452 -3.30045959 5.56275452 -3.30311584 4.24525452 C-3.13006347 0.17343394 -3.13006347 0.17343394 0 0 Z " fill="#F4F4F4" transform="translate(185.17030334472656,230.87974548339844)"/>
<path d="M0 0 C0.78568359 -0.01611328 1.57136719 -0.03222656 2.38085938 -0.04882812 C3.53618164 -0.04979492 3.53618164 -0.04979492 4.71484375 -0.05078125 C5.75112915 -0.05525269 5.75112915 -0.05525269 6.80834961 -0.05981445 C9.0625 0.3125 9.0625 0.3125 15.0625 3.3125 C13.4125 7.9325 11.7625 12.5525 10.0625 17.3125 C8.33 17.085625 6.5975 16.85875 4.8125 16.625 C1.57349773 16.20084494 -0.27211825 15.99225674 -3.234375 17.41796875 C-5.54546098 19.6476228 -5.54546098 19.6476228 -5.9375 25.3125 C-0.6575 25.6425 4.6225 25.9725 10.0625 26.3125 C10.0625 31.2625 10.0625 36.2125 10.0625 41.3125 C4.7825 41.3125 -0.4975 41.3125 -5.9375 41.3125 C-5.9375 56.8225 -5.9375 72.3325 -5.9375 88.3125 C-12.2075 88.3125 -18.4775 88.3125 -24.9375 88.3125 C-24.9375 72.8025 -24.9375 57.2925 -24.9375 41.3125 C-28.2375 41.3125 -31.5375 41.3125 -34.9375 41.3125 C-34.9375 36.3625 -34.9375 31.4125 -34.9375 26.3125 C-31.9675 25.9825 -28.9975 25.6525 -25.9375 25.3125 C-25.77314453 24.22582031 -25.77314453 24.22582031 -25.60546875 23.1171875 C-24.21726397 14.65252422 -22.48276843 9.24135812 -15.8515625 3.609375 C-10.70636152 0.12323883 -6.02626551 -0.024597 0 0 Z " fill="#F7F7F7" transform="translate(382.9375,206.6875)"/>
<path d="M0 0 C6.27 0 12.54 0 19 0 C19 21.12 19 42.24 19 64 C12.73 64 6.46 64 0 64 C0 42.88 0 21.76 0 0 Z " fill="#F9F9F9" transform="translate(321,231)"/>
<path d="M0 0 C3.76013514 3.22297297 3.76013514 3.22297297 4.625 6.25 C4.95081517 10.7299586 4.94944532 14.34070559 2.625 18.25 C-0.59587415 21.02144985 -2.64263877 22.15845485 -6.875 22.6875 C-11.78168599 22.07416425 -14.99591727 20.85892985 -18.25 17.0625 C-19.72015615 13.38710961 -20.0637416 10.11754897 -19.375 6.25 C-17.76576503 3.14647542 -16.37152733 1.03298576 -13.625 -1.125 C-8.40862133 -2.57399408 -4.72603481 -2.45053657 0 0 Z " fill="#23C25E" transform="translate(487.375,273.75)"/>
<path d="M0 0 C2.54493001 1.3548166 4.67672873 2.80058456 6.55859375 4.99609375 C7.53945909 9.40998777 6.90633008 13.63539473 4.80859375 17.62109375 C1.64923493 20.55478408 -1.12793376 21.17214171 -5.37890625 21.55859375 C-9.298895 21.21473509 -11.62333315 20.329535 -14.94140625 18.24609375 C-17.76137035 14.01614759 -17.73371813 10.21388927 -16.94140625 5.24609375 C-12.69265266 -0.38063398 -6.89184155 -2.67630869 0 0 Z " fill="#F4F4F4" transform="translate(335.94140625,202.75390625)"/>
<path d="M0 0 C2.69956145 2.37818509 3.67372818 3.88792144 4.625 7.3125 C3.965 7.9725 3.305 8.6325 2.625 9.3125 C1.625 8.3125 1.625 8.3125 1.5625 5.75 C1.583125 4.945625 1.60375 4.14125 1.625 3.3125 C0.99851562 3.32410156 0.37203125 3.33570313 -0.2734375 3.34765625 C-1.09070313 3.35667969 -1.90796875 3.36570312 -2.75 3.375 C-3.56210937 3.38660156 -4.37421875 3.39820313 -5.2109375 3.41015625 C-7.375 3.3125 -7.375 3.3125 -9.375 2.3125 C-9.99375 2.8075 -10.6125 3.3025 -11.25 3.8125 C-13.375 5.3125 -13.375 5.3125 -15.375 5.3125 C-15.705 8.6125 -16.035 11.9125 -16.375 15.3125 C-15.385 15.6425 -14.395 15.9725 -13.375 16.3125 C-13.375 17.3025 -13.375 18.2925 -13.375 19.3125 C-14.365 19.3125 -15.355 19.3125 -16.375 19.3125 C-19.25433809 15.89995116 -19.90699048 12.75526019 -19.73046875 8.30859375 C-19.00976481 4.26156396 -16.79921271 1.43152427 -13.625 -1.0625 C-8.43838439 -2.50322656 -4.73300186 -2.36650093 0 0 Z " fill="#2BB466" transform="translate(487.375,273.6875)"/>
<path d="M0 0 C2 2 2 2 2.125 5.125 C2.08375 6.07375 2.0425 7.0225 2 8 C2.99 8.33 3.98 8.66 5 9 C5 9.99 5 10.98 5 12 C4.01 12 3.02 12 2 12 C-0.68919695 8.8305893 -1.03127579 7.38156466 -0.6875 3.1875 C-0.460625 2.135625 -0.23375 1.08375 0 0 Z " fill="#36B571" transform="translate(469,281)"/>
<path d="M0 0 C0.66 0 1.32 0 2 0 C1.875 1.75 1.875 1.75 1 4 C-2.42025812 6.93164982 -4.34237647 7.95757268 -8.875 8.25 C-9.90625 8.1675 -10.9375 8.085 -12 8 C-10.68 7.67 -9.36 7.34 -8 7 C-8 6.34 -8 5.68 -8 5 C-7.05125 4.731875 -6.1025 4.46375 -5.125 4.1875 C-1.74732727 3.25013412 -1.74732727 3.25013412 0 0 Z " fill="#329B5C" transform="translate(489,288)"/>
<path d="M0 0 C1.32 0.33 2.64 0.66 4 1 C3.01 1 2.02 1 1 1 C0.67 1.99 0.34 2.98 0 4 C-1.62890625 5.38671875 -1.62890625 5.38671875 -3.5625 6.6875 C-4.20316406 7.12449219 -4.84382812 7.56148438 -5.50390625 8.01171875 C-5.99761719 8.33785156 -6.49132812 8.66398437 -7 9 C-6.2421875 5.21875 -6.2421875 5.21875 -4.0625 3.25 C-2 2 -2 2 0 2 C0 1.34 0 0.68 0 0 Z " fill="#D2D2D2" transform="translate(255,259)"/>
<path d="M0 0 C3.40320742 1.01176437 4.75725331 1.64843582 6.8125 4.625 C7.204375 5.40875 7.59625 6.1925 8 7 C7.01 8.485 7.01 8.485 6 10 C5 9 5 9 4.9375 6.4375 C4.958125 5.633125 4.97875 4.82875 5 4 C4.34 4 3.68 4 3 4 C3 3.34 3 2.68 3 2 C2.01 1.67 1.02 1.34 0 1 C0 0.67 0 0.34 0 0 Z " fill="#3BA966" transform="translate(484,273)"/>
</svg>
